# xmcd CD database file
#
# Track frame offsets:
#	150
#	23511
#	44470
#	67430
#	87785
#	112020
#	133730
#	154422
#	176565
#	203601
#
# Disc length: 2897 seconds
#
# Revision: 2
# Processed by: cddbd v1.5.2PL0 Copyright (c) Steve Scherf et al.
# Submitted via: CDex 1.70beta2
#
DISCID=8b0b4f0a
DTITLE=霍世潔 - 爵士．胡情
DYEAR=2011
DGENRE=Jazz
TTITLE0=酷
TTITLE1=紛
TTITLE2=閑
TTITLE3=競
TTITLE4=情 [我有一段情]
TTITLE5=憶 [明月千里寄相思]
TTITLE6=昔 [岷江夜曲]
TTITLE7=怨 [斷腸紅]
TTITLE8=淚 [情人的眼淚]
TTITLE9=悠 [南屏晚鐘]
EXTD=YEAR: 2011
EXTT0=
EXTT1=
EXTT2=
EXTT3=
EXTT4=
EXTT5=
EXTT6=
EXTT7=
EXTT8=
EXTT9=
PLAYORDER=
